<?xml version="1.0" standalone="no"?>
<!DOCTYPE svg PUBLIC "-//W3C//DTD SVG 20010904//EN"
 "http://www.w3.org/TR/2001/REC-SVG-20010904/DTD/svg10.dtd">
<svg version="1.0" xmlns="http://www.w3.org/2000/svg"
 width="100.000000pt" height="100.000000pt" viewBox="0 0 100.000000 100.000000"
 preserveAspectRatio="xMidYMid meet">

<g transform="translate(0.000000,100.000000) scale(0.100000,-0.100000)"
fill="#000000" stroke="none">
<path d="M379 851 c-54 -8 -128 -43 -159 -76 -12 -12 -32 -53 -45 -91 -28 -77
-26 -132 6 -196 16 -31 17 -38 4 -48 -8 -7 -15 -25 -15 -39 0 -34 36 -110 56
-118 8 -3 21 -20 28 -37 7 -18 28 -48 45 -68 35 -40 38 -55 16 -84 -17 -22
-20 -54 -5 -54 6 0 10 8 10 18 1 21 23 52 38 52 6 0 23 -17 37 -37 16 -24 25
-31 25 -20 0 13 9 17 37 17 32 0 44 8 88 53 46 50 62 76 118 197 11 25 24 53
29 62 12 26 10 52 -6 73 -9 12 -11 26 -6 35 5 9 16 44 25 79 l16 63 -31 66
c-39 83 -62 108 -125 138 -51 24 -94 28 -186 15z m189 -30 c20 -10 46 -30 57
-43 26 -30 47 -68 38 -67 -22 4 -35 -3 -45 -25 l-11 -25 -17 21 -17 21 -21
-21 c-16 -16 -22 -18 -26 -6 -3 8 -10 14 -15 14 -6 0 -8 -7 -5 -15 4 -8 1 -15
-5 -15 -6 0 -11 -10 -11 -22 0 -21 0 -21 -15 -2 -14 18 -14 18 -15 -4 0 -12 7
-25 15 -28 8 -3 17 -21 21 -40 8 -42 20 -36 35 19 10 35 13 39 20 22 4 -11 8
-33 8 -48 1 -41 19 -24 33 31 l11 46 18 -49 c11 -32 18 -86 20 -150 2 -83 3
-91 8 -46 6 55 23 76 35 45 8 -20 -21 -104 -41 -120 -7 -6 -13 -19 -13 -29 0
-22 -80 -153 -110 -180 -14 -13 -38 -20 -71 -21 -49 -1 -51 0 -105 60 -30 33
-63 80 -75 103 -11 22 -26 44 -34 47 -23 8 -57 85 -51 112 6 21 11 23 34 18
15 -4 35 -16 44 -28 l18 -21 0 27 c0 15 8 32 18 37 15 9 15 10 1 11 -9 0 -22
-7 -29 -15 -9 -10 -17 -12 -30 -5 -16 9 -16 14 -4 66 7 31 16 59 20 62 4 4 4
-5 0 -20 -9 -39 -1 -35 27 13 23 38 25 39 32 17 6 -18 9 -11 15 35 7 57 20 89
20 50 0 -28 29 -110 44 -122 10 -8 12 1 9 47 l-4 57 38 -65 38 -65 3 37 c2 28
-4 46 -26 77 -16 22 -32 37 -36 34 -3 -3 -6 3 -6 14 0 21 -29 86 -31 68 0 -5
-4 -1 -9 10 -7 18 -9 17 -20 -12 -7 -18 -17 -33 -24 -33 -6 0 -17 -9 -24 -21
-7 -11 -19 -18 -26 -16 -8 3 -18 1 -24 -5 -11 -11 -18 0 -36 58 -9 29 23 67
81 95 87 42 201 46 271 10z"/>
<path d="M305 513 c-24 -6 -45 -22 -45 -35 0 -5 9 -4 21 3 12 6 39 9 60 7 41
-4 47 0 27 20 -12 12 -28 13 -63 5z"/>
<path d="M520 506 c-10 -13 -4 -15 39 -14 41 1 49 4 40 15 -15 17 -64 17 -79
-1z"/>
<path d="M495 451 c-6 -5 -25 -11 -44 -13 -26 -2 -36 -9 -42 -28 l-9 -25 16
23 c20 26 49 29 63 5 9 -16 10 -16 11 4 0 12 8 27 18 32 9 6 12 11 7 11 -6 0
-15 -4 -20 -9z"/>
<path d="M522 433 c-9 -16 -7 -19 18 -21 17 -1 30 4 34 13 3 8 1 15 -3 15 -5
0 -16 3 -24 6 -9 3 -20 -2 -25 -13z"/>
<path d="M313 430 c-50 -20 -13 -39 45 -24 18 5 20 9 11 20 -13 16 -24 17 -56
4z"/>
<path d="M190 399 c0 -5 4 -8 9 -4 6 3 14 -3 20 -12 9 -16 10 -16 11 -2 0 9
-7 20 -16 23 -21 8 -24 8 -24 -5z"/>
<path d="M217 346 c-3 -8 4 -22 15 -33 21 -17 21 -17 15 0 -4 10 -7 25 -7 33
0 18 -16 18 -23 0z"/>
<path d="M450 280 c-8 -5 -10 -10 -5 -10 6 0 17 5 25 10 8 5 11 10 5 10 -5 0
-17 -5 -25 -10z"/>
<path d="M406 201 c5 -4 34 -5 64 -1 l55 7 -64 2 c-37 0 -61 -3 -55 -8z"/>
<path d="M705 161 c-26 -5 -30 -12 -37 -50 -4 -24 -13 -49 -19 -57 -9 -12 -4
-14 30 -14 28 0 41 4 41 14 0 23 34 58 50 51 9 -3 21 -15 29 -27 11 -17 11
-22 -1 -29 -10 -6 -8 -9 7 -9 11 1 29 7 40 16 18 14 18 16 3 42 -28 47 -90 74
-143 63z m85 -26 c32 -17 57 -53 43 -64 -4 -3 -28 13 -52 37 -46 43 -42 53 9
27z"/>
<path d="M371 54 c0 -11 3 -14 6 -6 3 7 2 16 -1 19 -3 4 -6 -2 -5 -13z"/>
</g>
</svg>
